<svg width="24" height="24" viewBox="0 0 24 24" fill="none" xmlns="http://www.w3.org/2000/svg">
<path d="M23.9812 13.9598C24.2451 12.3379 21.7098 10.4763 17.8182 9.16153C17.0618 8.9048 16.5466 8.19567 16.5461 7.39261C16.5352 3.28373 15.5896 0.29048 13.9599 0.0187972C12.338 -0.245095 10.4764 2.29022 9.16164 6.18177C8.9049 6.93824 8.19576 7.45335 7.3927 7.45394C3.28382 7.46477 0.290575 8.41039 0.0188916 10.0401C-0.245001 11.662 2.29031 13.5236 6.18186 14.8384C6.93833 15.0951 7.45345 15.8042 7.45404 16.6073C7.46487 20.7162 8.41048 23.7094 10.0402 23.9811C11.6621 24.245 13.5237 21.7097 14.8385 17.8181C15.0952 17.0617 15.8043 16.5465 16.6074 16.5459C20.7241 16.5351 23.7173 15.5895 23.9812 13.9598Z" fill="#EDB82C"/>
</svg>
