<svg width="13" height="17" viewBox="0 0 13 17" fill="none" xmlns="http://www.w3.org/2000/svg">
<path d="M12.993 1.15923L13 10.6564C13.0025 14.0516 10.2436 16.8069 6.85613 16.8094L6.16009 16.8099C2.76493 16.8124 0.00962854 14.0612 0.00712254 10.666L0.000112599 1.16882C4.40979e-05 1.07601 0.00772178 0.990936 0.0308606 0.905846C0.154226 0.39532 0.602502 0.0082928 1.15161 0.0078875C1.70071 0.0074822 2.1573 0.393841 2.28142 0.904185C2.30468 0.98924 2.31247 1.0743 2.31254 1.16711L2.31785 8.35961C2.31842 9.13299 2.95306 9.76671 3.72645 9.76614L3.95846 9.76596C4.73185 9.76539 5.36557 9.13074 5.36499 8.35736L5.35969 1.16486C5.35962 1.07206 5.36728 0.98698 5.39042 0.90189C5.51379 0.391364 5.9698 0.00433115 6.51891 0.00392585C7.06801 0.00352055 7.51686 0.389885 7.64098 0.900229C7.66424 0.985284 7.67203 1.07035 7.6721 1.16315L7.67745 8.40205C7.67802 9.18317 8.31267 9.81688 9.09379 9.8163L9.29488 9.81616C10.076 9.81558 10.702 9.18094 10.7014 8.39982L10.696 1.16092C10.696 1.06812 10.7037 0.983041 10.7268 0.897951C10.8502 0.387425 11.3062 0.000392342 11.8553 -1.29559e-05C12.4044 -0.000418254 12.861 0.385941 12.9851 0.896285C12.9851 0.973623 12.9929 1.06642 12.993 1.15923Z" fill="#0E7F3D"/>
</svg>
