<svg width="24" height="24" viewBox="0 0 24 24" fill="none" xmlns="http://www.w3.org/2000/svg">
<path d="M23.9541 8.98138C23.5411 7.35838 20.4365 6.65591 16.2716 6.99949C15.456 7.06344 14.6955 6.61264 14.3703 5.86854C12.7046 2.03717 10.6044 -0.360604 8.98139 0.0444412C7.35839 0.457405 6.65592 3.562 6.9995 7.72692C7.06345 8.54249 6.61265 9.303 5.86855 9.62822C2.03719 11.2939 -0.360591 13.3941 0.0444544 15.0171C0.457418 16.6401 3.56201 17.3426 7.72693 16.999C8.54249 16.9351 9.30301 17.3859 9.62822 18.13C11.294 21.9613 13.3941 24.3591 15.0172 23.9541C16.6402 23.5411 17.3426 20.4365 16.999 16.2716C16.9351 15.456 17.3859 14.6955 18.13 14.3703C21.9613 12.6967 24.367 10.6044 23.9541 8.98138Z" fill="#32B768"/>
</svg>
