<svg width="24" height="24" viewBox="0 0 24 24" fill="none" xmlns="http://www.w3.org/2000/svg">
<path d="M23.9541 8.98143C23.5411 7.35841 20.4365 6.65595 16.2716 6.99952C15.456 7.06348 14.6955 6.61268 14.3703 5.86857C12.7045 2.03719 10.6043 -0.360606 8.98131 0.0444414C7.3583 0.457407 6.65583 3.56202 6.99941 7.72696C7.06336 8.54253 6.61256 9.30305 5.86845 9.62827C2.03707 11.294 -0.36072 13.3942 0.0443277 15.0172C0.457294 16.6402 3.56191 17.3427 7.72684 16.9991C8.54241 16.9352 9.30293 17.386 9.62815 18.1301C11.2939 21.9615 13.3941 24.3593 15.0171 23.9542C16.6401 23.5412 17.3426 20.4366 16.999 16.2717C16.9351 15.4561 17.3859 14.6956 18.13 14.3704C21.9613 12.6967 24.367 10.6044 23.9541 8.98143Z" fill="#32B768"/>
</svg>
