<svg width="24" height="24" viewBox="0 0 24 24" fill="none" xmlns="http://www.w3.org/2000/svg">
<path d="M23.9809 13.9596C24.2448 12.3377 21.7096 10.4762 17.818 9.16144C17.0616 8.9047 16.5465 8.19558 16.5459 7.39253C16.5351 3.28369 15.5894 0.290477 13.9597 0.018797C12.3378 -0.245093 10.4763 2.29019 9.16154 6.1817C8.90481 6.93817 8.19568 7.45327 7.39262 7.45387C3.28379 7.4647 0.290572 8.4103 0.0188914 10.04C-0.244998 11.6619 2.29029 13.5234 6.1818 14.8382C6.93826 15.0949 7.45337 15.804 7.45396 16.6071C7.46479 20.7159 8.41039 23.7092 10.0401 23.9808C11.662 24.2447 13.5235 21.7094 14.8383 17.8179C15.095 17.0615 15.8042 16.5464 16.6072 16.5458C20.7239 16.5349 23.7171 15.5893 23.9809 13.9596Z" fill="#EDB82C"/>
</svg>
