<svg width="102" height="25" viewBox="0 0 102 25" fill="none" xmlns="http://www.w3.org/2000/svg">
<path d="M95.4133 0.99601C99.6397 0.771646 103.099 5.2245 101.674 7.93389C100.25 10.6433 94.9871 12.6841 93.248 13.1966C89.297 14.3667 92.1624 20.4527 84.6922 18.6577C80.8312 17.7298 79.704 20.3398 77.5617 22.4394C75.4271 24.539 69.7194 23.0784 64.3697 20.7707C59.02 18.4631 54.3863 24.9741 49.2209 24.3523C44.0556 23.7306 39.4152 21.2088 36.0288 22.4701C32.6424 23.7314 30.6808 22.474 26.5734 18.487C22.4659 14.5 18.3732 19.9655 14.6262 18.4958C10.8792 17.0262 12.3032 13.4623 8.20496 11.5733C4.09909 9.68432 0.00174283 8.99309 8.44665e-06 6.64332C-0.00391081 1.33346 8.12776 -1.17591e-05 8.12776 -1.17591e-05L95.4133 0.99601Z" fill="#E06738"/>
</svg>
